<svg height="511pt" viewBox="0 0 511 511.99999" width="511pt" xmlns="http://www.w3.org/2000/svg"><path d="m149.488281 132.5c-4.832031 0-8.75-3.914062-8.75-8.75 0-40.226562-22.550781-68.433594-22.773437-68.714844-3.046875-3.738281-2.492188-9.25 1.25-12.304687 3.734375-3.042969 9.230468-2.503907 12.285156 1.21875 1.09375 1.328125 26.738281 33.097656 26.738281 79.800781 0 4.835938-3.914062 8.75-8.75 8.75zm0 0" fill="#cdf5a0"/><path d="m192.527344 14.6875c-25.976563 14.585938-43.804688 37.34375-51.289063 61.683594 24.679688 6.289062 53.390625 2.914062 79.371094-11.667969 22.09375-12.40625 38.296875-30.722656 47.246094-50.902344 2.511719-5.652343-1.136719-12.148437-7.269531-12.949219-21.886719-2.863281-45.960938 1.429688-68.058594 13.835938zm0 0" fill="#96d7a5"/><path d="m260.589844.851562c-21.890625-2.863281-45.964844 1.429688-68.058594 13.835938-25.980469 14.585938-43.808594 37.34375-51.289062 61.683594l126.230468-70.839844c-1.363281-2.441406-3.808594-4.277344-6.882812-4.679688zm0 0" fill="#78c3a5"/><path d="m131.5 43.949219c-3.054688-3.722657-8.550781-4.261719-12.285156-1.21875-3.738282 3.054687-4.296875 8.566406-1.25 12.304687.144531.179688 9.550781 12.007813 16.21875 31.160156 1.453125 4.171876 5.816406 6.613282 10.132812 5.675782 5.167969-1.121094 8.195313-6.570313 6.453125-11.5625-7.660156-21.996094-18.5625-35.503906-19.269531-36.359375zm0 0" fill="#b4e6a0"/><path d="m149 470.75c10.582031 0 19.984375-2.984375 26.015625-18.480469 2.613281-6.722656 8.308594-11.777343 15.175781-13.976562 61.972656-19.839844 107.308594-83.296875 107.308594-158.542969 0-91.125-66.484375-165-148.5-165s-148.5 73.875-148.5 165c0 75.246094 45.335938 138.703125 107.308594 158.542969 6.867187 2.199219 12.5625 7.253906 15.175781 13.976562 6.03125 15.496094 15.433594 18.480469 26.015625 18.480469zm0 0" fill="#afdc82"/><path d="m218.773438 406.519531c-64.4375 9.066407-132.847657-28.386719-165.546876-96.152343-26.539062-55.003907-22.785156-116.042969 4.789063-161.027344-34.996094 30.1875-57.515625 77.375-57.515625 130.410156 0 75.246094 45.335938 138.703125 107.308594 158.542969 6.867187 2.199219 12.5625 7.253906 15.175781 13.976562 6.03125 15.496094 15.433594 18.480469 26.015625 18.480469s19.984375-2.984375 26.015625-18.480469c2.613281-6.722656 8.308594-11.777343 15.175781-13.976562 17.378906-5.5625 33.378906-14.65625 47.507813-26.382813-5.207031-4.425781-12.121094-6.347656-18.925781-5.390625zm0 0" fill="#96cd82"/><path d="m512 355.25c0 86.570312-62.480469 156.75-165 156.75s-165-70.179688-165-156.75 62.480469-156.75 165-156.75 165 70.179688 165 156.75zm0 0" fill="#afdc82"/><path d="m347 215.3125c87.238281 0 148.167969 57.542969 148.167969 139.9375s-60.929688 139.9375-148.167969 139.9375-148.167969-57.542969-148.167969-139.9375 60.929688-139.9375 148.167969-139.9375" fill="#fff6d8"/><path d="m363.5 355.25c0 9.113281-7.386719 16.5-16.5 16.5s-16.5-7.386719-16.5-16.5 7.386719-16.5 16.5-16.5 16.5 7.386719 16.5 16.5zm0 0" fill="#fff"/><g fill="#e1f587"><path d="m314.277344 363.5h-101.722656c-7.503907 0-13.375 6.65625-12.320313 14.082031 3.589844 25.230469 13.257813 47.496094 27.871094 65.695313 4.574219 5.699218 13.179687 6.019531 18.347656.851562l71.574219-71.574218c3.34375-3.339844.976562-9.054688-3.75-9.054688zm0 0"/><path d="m324.96875 216.4375c-23.597656 2.761719-44.8125 9.949219-62.808594 20.886719-6.796875 4.128906-7.757812 13.660156-2.136718 19.28125l69.671874 69.671875c3.339844 3.339844 9.054688.976562 9.054688-3.75v-93.746094c0-7.382812-6.449219-13.203125-13.78125-12.34375zm0 0"/><path d="m355.25 228.78125v93.746094c0 4.726562 5.714844 7.089844 9.054688 3.75l69.671874-69.671875c5.621094-5.621094 4.660157-15.152344-2.136718-19.28125-17.996094-10.9375-39.210938-18.125-62.808594-20.886719-7.332031-.859375-13.78125 4.960938-13.78125 12.34375zm0 0"/><path d="m318.027344 337.945312-71.574219-71.578124c-5.167969-5.164063-13.773437-4.84375-18.347656.855468-14.609375 18.199219-24.28125 40.464844-27.871094 65.691406-1.058594 7.429688 4.816406 14.085938 12.320313 14.085938h101.722656c4.726562 0 7.09375-5.714844 3.75-9.054688zm0 0"/><path d="m375.972656 372.554688 71.574219 71.578124c5.167969 5.164063 13.773437 4.84375 18.347656-.855468 14.609375-18.199219 24.28125-40.464844 27.871094-65.691406 1.058594-7.429688-4.816406-14.085938-12.320313-14.085938h-101.722656c-4.726562 0-7.09375 5.714844-3.75 9.054688zm0 0"/><path d="m379.722656 347h101.726563c7.5 0 13.375-6.65625 12.316406-14.082031-3.585937-25.230469-13.257813-47.496094-27.871094-65.695313-4.574219-5.699218-13.179687-6.019531-18.347656-.851562l-71.574219 71.574218c-3.34375 3.339844-.976562 9.054688 3.75 9.054688zm0 0"/><path d="m355.25 387.972656v93.746094c0 7.382812 6.449219 13.203125 13.78125 12.34375 23.597656-2.761719 44.8125-9.953125 62.808594-20.886719 6.796875-4.128906 7.757812-13.660156 2.136718-19.285156l-69.671874-69.667969c-3.339844-3.34375-9.054688-.976562-9.054688 3.75zm0 0"/><path d="m329.695312 384.222656-69.671874 69.671875c-5.621094 5.621094-4.660157 15.152344 2.136718 19.28125 17.996094 10.9375 39.210938 18.125 62.808594 20.886719 7.332031.859375 13.78125-4.960938 13.78125-12.34375v-93.746094c0-4.726562-5.714844-7.09375-9.054688-3.75zm0 0"/></g></svg>