<svg width="144" height="144" viewBox="0 0 144 144" fill="none" xmlns="http://www.w3.org/2000/svg">
<circle cx="80" cy="80" r="80" fill="#E3FBFD"/>
<path opacity="0.15" d="M147.326 124.145C146.399 125.487 144.931 126.448 143.189 126.682L66.3691 137.029L51.6816 25.5092L121.11 16.1584C122.271 16.0019 123.4 16.1891 124.394 16.6418L127.769 16.1871C131.053 15.7448 134.074 18.0485 134.517 21.3326L139.196 56.0793C139.409 57.6563 140.239 59.0844 141.504 60.0494L145.795 63.3214C147.068 64.2924 147.9 65.732 148.106 67.3199L154.574 117.144C154.999 120.419 152.698 123.422 149.425 123.862L147.326 124.145Z" fill="#014266"/>
<path d="M72.192 131.716L57.8411 23.0566L126.414 13.8209C129.698 13.3786 132.719 15.6823 133.161 18.9664L138.173 56.1761L144.44 60.9552C145.713 61.9262 146.545 63.3658 146.751 64.9537L153.219 114.777C153.644 118.052 151.343 121.055 148.07 121.496L72.192 131.716Z" fill="#00639A"/>
<path opacity="0.1" d="M71.2523 120.455L64.3237 21.7753L68.7363 21.539L68.7315 21.3542L73.0055 21.3103L140.866 17.6761L141.072 20.6111L143.227 20.589L144.507 69.5421L147.794 116.356L145.734 116.466L145.78 118.213L105.373 118.628L71.2523 120.455Z" fill="#014266"/>
<path d="M62.8983 21.3896L70.689 120.005L147.192 115.237L139.402 16.6218L62.8983 21.3896Z" fill="#DCEEF5"/>
<path d="M67.3024 20.9301L70.708 118.528L145.194 117.112L141.789 19.5138L67.3024 20.9301Z" fill="#F1FBFF"/>
<path d="M118.207 32.9206L77.7227 33.8612L77.798 36.3389L118.282 35.3983L118.207 32.9206Z" fill="#BEE0ED"/>
<path d="M135.657 32.475L120.874 32.8023L120.953 35.2966L135.735 34.9693L135.657 32.475Z" fill="#BEE0ED"/>
<path d="M119.267 69.7976L78.7832 70.7383L78.8586 73.2159L119.343 72.2753L119.267 69.7976Z" fill="#BEE0ED"/>
<path d="M120.093 92.8353L79.6084 93.7759L79.6838 96.2536L120.168 95.313L120.093 92.8353Z" fill="#BEE0ED"/>
<path d="M136.719 69.3514L121.937 69.6787L122.015 72.173L136.798 71.8457L136.719 69.3514Z" fill="#BEE0ED"/>
<path d="M137.544 92.3892L122.761 92.7165L122.839 95.2108L137.622 94.8835L137.544 92.3892Z" fill="#BEE0ED"/>
<path d="M99.8491 40.0863L77.9126 40.5819L77.9898 43.0692L99.9263 42.5735L99.8491 40.0863Z" fill="#BEE0ED"/>
<path d="M135.857 39.2119L102.159 39.9888L102.235 42.4691L135.933 41.6922L135.857 39.2119Z" fill="#BEE0ED"/>
<path d="M100.341 57.1152L78.4043 57.6108L78.4815 60.0981L100.418 59.6024L100.341 57.1152Z" fill="#BEE0ED"/>
<path d="M136.344 56.2368L102.646 57.0138L102.722 59.4941L136.42 58.7171L136.344 56.2368Z" fill="#BEE0ED"/>
<path d="M105.56 46.2395L78.0942 46.8669L78.1707 49.3504L105.637 48.723L105.56 46.2395Z" fill="#BEE0ED"/>
<path d="M135.867 45.4371L108.448 46.1219L108.526 48.611L135.944 47.9262L135.867 45.4371Z" fill="#BEE0ED"/>
<path d="M106.443 76.8799L78.9766 77.5073L79.0531 79.9908L106.519 79.3634L106.443 76.8799Z" fill="#BEE0ED"/>
<path d="M97.5825 100.148L79.8013 100.545L79.8791 103.036L97.6604 102.639L97.5825 100.148Z" fill="#BEE0ED"/>
<path d="M129.059 76.3234L109.327 76.7669L109.404 79.256L129.137 78.8125L129.059 76.3234Z" fill="#BEE0ED"/>
<path d="M106.054 63.3388L78.5879 63.9662L78.6644 66.4498L106.13 65.8223L106.054 63.3388Z" fill="#BEE0ED"/>
<path d="M96.1994 86.4506L79.4118 87.0012L79.4901 89.4944L96.2777 88.9438L96.1994 86.4506Z" fill="#BEE0ED"/>
<path d="M136.527 62.5911L108.939 63.2215L109.015 65.7049L136.604 65.0746L136.527 62.5911Z" fill="#BEE0ED"/>
<path d="M137.354 85.6338L98.9497 86.5242L99.0252 89.0026L137.429 88.1122L137.354 85.6338Z" fill="#BEE0ED"/>
<path d="M65.014 134.663L50.3265 23.1429L119.754 13.7921C123.039 13.3498 126.059 15.6535 126.502 18.9376L131.248 54.1793C131.461 55.7564 132.291 57.1845 133.556 58.1494L137.94 61.4923C139.214 62.4641 140.046 63.9052 140.252 65.4945L146.983 117.601C147.406 120.875 145.105 123.876 141.834 124.316L65.014 134.663Z" fill="#0098C4"/>
<rect x="68.2891" y="54.4596" width="26.7911" height="4.54943" transform="rotate(-7.86655 68.2891 54.4596)" fill="#00639A"/>
<rect x="69.3262" y="61.9709" width="15.1648" height="4.54943" transform="rotate(-7.86655 69.3262 61.9709)" fill="#00639A"/>
<rect x="99.084" y="50.2047" width="17.945" height="4.54943" transform="rotate(-7.86655 99.084 50.2047)" fill="#00639A"/>
<rect x="88.6055" y="59.307" width="29.5713" height="4.54943" transform="rotate(-7.86655 88.6055 59.307)" fill="#00639A"/>
<rect x="80.1895" y="70.4206" width="17.945" height="2.78021" transform="rotate(-7.86655 80.1895 70.4206)" fill="#00639A"/>
<rect x="100.219" y="67.6532" width="9.60436" height="2.78021" transform="rotate(-7.86655 100.219 67.6532)" fill="#00639A"/>
<g opacity="0.3">
<path fill-rule="evenodd" clip-rule="evenodd" d="M111.885 70.4036C109.441 70.191 107.644 70.6151 107.644 70.6151L107.514 72.1095C107.212 75.5892 108.549 79.0111 111.13 81.3641C112.218 80.6459 113.157 79.7535 113.921 78.7354C114.079 78.5986 114.213 78.4706 114.31 78.3585C114.962 77.6057 115.21 76.6347 115.21 76.6347L115.222 76.5038C115.704 75.4001 116.012 74.2132 116.118 72.9846L116.259 71.3643C116.259 71.3643 114.33 70.6162 111.885 70.4036ZM115.222 76.5038L115.636 71.7854L114.947 71.6083L112.052 71.0013L111.328 80.5848C111.328 80.5848 113.016 79.5174 113.921 78.7354C114.439 78.0444 114.875 77.2955 115.222 76.5038Z" fill="white"/>
<circle cx="111.44" cy="75.5262" r="7.54986" transform="rotate(4.9698 111.44 75.5262)" stroke="white" stroke-width="5"/>
<circle cx="111.44" cy="75.5262" r="6.9464" transform="rotate(4.9698 111.44 75.5262)" stroke="white" stroke-width="2"/>
</g>
<path opacity="0.15" fill-rule="evenodd" clip-rule="evenodd" d="M52.5605 80.8944C56.656 74.9955 69.6116 54.3348 61.6045 39.3798L53.0792 41.4215L52.9404 41.404C41.6948 51.6183 45.1208 70.8952 47.001 78.3785L43.57 80.7894C43.7513 81.0925 43.9363 81.3932 44.125 81.6914C37.0184 79.9922 16.7585 76.1259 7.26708 84.5313L7.25803 84.6303L5.27783 92.0423C14.4253 97.3196 24.7477 95.7507 33.0133 92.6892L22.608 107.912C21.9847 108.823 22.2178 110.069 23.1287 110.694L31.4751 116.419L31.4748 116.419L38.9717 121.562L38.972 121.561L47.3187 127.287C48.2296 127.911 49.4733 127.679 50.0966 126.767L62.0023 109.349C62.3885 108.784 62.4593 108.061 62.19 107.431L61.7098 106.308C62.0848 106.221 62.4591 106.115 62.8318 105.992C63.4015 105.804 63.9494 105.578 64.4736 105.32C65.144 106.628 66.0832 107.787 67.2364 108.718C68.3118 109.588 69.5474 110.236 70.8726 110.627C72.1978 111.018 73.5864 111.144 74.9592 110.996C76.332 110.849 77.6619 110.432 78.8729 109.769C78.9471 109.728 79.0207 109.687 79.0938 109.645L81.2658 111.388L83.3052 111.223L83.7435 111.59L84.63 114.117L85.1272 114.523L86.6262 114.502L88.9672 116.386L89.0717 117.698L90.5465 118.885L93.3354 119.581L93.8326 119.987L94.4392 122.131L95.9415 123.246L97.9263 123.619L99.0673 124.542L99.9028 126.453L106.236 126.121L106.255 126.137L106.259 126.12L106.274 126.119L107.69 121.92L84.0783 102.859C84.1819 102.401 84.2551 101.934 84.2968 101.462C84.4801 99.3872 84.045 97.3032 83.0466 95.474C82.9114 95.2263 82.7667 94.9847 82.613 94.7499C82.6508 94.6706 82.6879 94.5908 82.7242 94.5107C82.769 94.4115 82.8126 94.3117 82.8549 94.2115L86.2004 94.3228L89.3027 92.3837L89.9926 92.4161L92.529 94.5406L93.2979 94.5705L95.4516 93.4865L96.027 93.5074L98.2459 94.7358L102.727 94.8973L105.101 93.38L105.876 93.4042L108.396 95.0903L108.85 95.1055L111.028 94.0226L112.79 94.0871L114.966 95.3195L120.821 90.4105L120.846 90.4114L120.839 90.3948L120.848 90.3872L119.179 85.3196L82.7278 84.07C82.4994 83.5633 82.237 83.0702 81.9418 82.5943C80.6214 80.4663 78.7016 78.7774 76.4252 77.741C74.1487 76.7046 71.6177 76.3671 69.1521 76.7714C66.6864 77.1758 64.3968 78.3036 62.5727 80.0125C62.1406 80.4172 61.7393 80.8501 61.3709 81.3077C59.2507 80.8677 56.991 80.9624 54.7889 81.6912C54.3184 81.847 53.863 82.0275 53.4237 82.231C53.1533 81.7856 52.8606 81.3354 52.5605 80.8944ZM49.4918 88.5041C49.7059 88.7247 49.9224 88.943 50.1414 89.159L54.8209 85.3816C54.7589 84.9874 54.6064 84.5322 54.3899 84.0411C54.7265 83.8895 55.0742 83.7539 55.4324 83.6353C56.995 83.1181 58.5921 82.9811 60.124 83.1738C59.5774 84.174 59.1653 85.2492 58.9037 86.372C58.3356 88.8097 58.5017 91.3624 59.3811 93.7076C60.1938 95.8751 61.582 97.7753 63.3906 99.2056C63.2169 100.609 63.3264 102.039 63.7183 103.408C63.2333 103.656 62.7228 103.871 62.1884 104.048C61.7574 104.191 61.3237 104.304 60.8895 104.39L55.352 91.4439C55.0469 90.7306 54.3577 90.2579 53.5835 90.2308L48.7626 90.0626C48.964 89.5243 49.2079 89.003 49.4918 88.5041ZM48.0477 86.9384C47.6344 86.467 47.2317 85.9864 46.84 85.4972C45.3094 86.5422 42.8137 88.1355 39.6736 89.7453L46.6267 89.988C46.965 88.9129 47.4433 87.887 48.0477 86.9384ZM38.972 121.561L31.4751 116.419L39.1555 105.183L46.6524 110.325L38.972 121.561ZM55.0541 52.0269C55.1674 57.6619 54.1579 65.6061 50.1836 75.9971C49.8806 65.6888 52.3545 57.6474 55.0541 52.0269ZM17.5748 86.9414C22.6793 85.5953 29.9393 84.3164 40.0864 83.6863C30.4171 86.7563 22.9347 87.301 17.5748 86.9414ZM46.6044 97.5839C46.1846 97.8054 45.8112 98.1296 45.5246 98.5488C44.582 99.9278 44.9367 101.813 46.3168 102.76C47.3634 103.478 48.6991 103.45 49.6947 102.793C49.198 102.286 48.7406 101.734 48.3295 101.142C47.6442 100.154 47.0873 99.0526 46.6903 97.8531C46.6606 97.7634 46.632 97.6737 46.6044 97.5839ZM68.3219 85.3134C69.4592 86.5851 70.36 88.1065 70.9305 89.8303C70.9757 89.9669 71.0185 90.1039 71.059 90.241C71.2239 89.675 71.2612 89.0765 71.1649 88.4896C71.038 87.7166 70.6852 86.9982 70.151 86.4255C69.6539 85.8928 69.0208 85.5084 68.3219 85.3134ZM69.1804 91.0599C69.122 90.8696 69.0585 90.6752 68.9913 90.4721C68.3264 88.4632 67.1274 86.7815 65.605 85.5331C64.9874 85.8192 64.4527 86.2614 64.0546 86.8183C63.5998 87.4547 63.3438 88.2122 63.3191 88.9951C63.3016 89.5139 63.3864 90.0313 63.5685 90.5176C63.7507 91.0039 64.0267 91.4496 64.3808 91.8291C64.7349 92.2087 65.1601 92.5146 65.6321 92.7295C65.8947 92.8491 66.169 92.9392 66.4498 92.9986C66.6496 92.8019 66.8577 92.6127 67.0738 92.4317C67.722 91.8887 68.4297 91.4291 69.1804 91.0599ZM48.6602 97.3026C49.025 98.3733 49.5421 99.3496 50.1791 100.215C50.413 100.533 50.6632 100.836 50.9279 101.124C51.288 99.8986 50.8415 98.5281 49.7304 97.7659C49.3963 97.5368 49.0327 97.3836 48.6602 97.3026Z" fill="#014266"/>
<path d="M77.9832 104.218C79.2864 102.597 80.0799 100.623 80.2632 98.5482C80.4465 96.473 80.0114 94.389 79.013 92.5598C78.0146 90.7305 76.4977 89.2382 74.6542 88.2716C72.8106 87.3049 70.7233 86.9073 68.656 87.1291C66.5887 87.3509 64.6344 88.1821 63.0402 89.5175C61.446 90.853 60.2835 92.6328 59.6998 94.6317C59.1161 96.6307 59.1373 98.7591 59.7608 100.748C60.3844 102.736 61.5822 104.496 63.2028 105.804C64.2782 106.674 65.5139 107.322 66.839 107.713C68.1642 108.104 69.5529 108.229 70.9256 108.082C72.2984 107.935 73.6284 107.518 74.8394 106.855C76.0504 106.192 77.1187 105.296 77.9832 104.218V104.218ZM64.7019 93.4465C65.1087 92.9403 65.6562 92.5666 66.2755 92.3726C66.8947 92.1785 67.5578 92.1729 68.1807 92.3565C68.8037 92.54 69.3585 92.9045 69.7752 93.4038C70.192 93.903 70.4517 94.5147 70.5217 95.1614C70.5917 95.808 70.4688 96.4607 70.1685 97.0369C69.8682 97.613 69.404 98.0867 68.8346 98.3981C68.2653 98.7095 67.6163 98.8445 66.9698 98.7861C66.3232 98.7278 65.7082 98.4787 65.2024 98.0704C64.5286 97.5291 64.0943 96.744 63.9935 95.8851C63.8927 95.0261 64.1335 94.1625 64.6639 93.4812L64.7019 93.4465Z" fill="#626868"/>
<path d="M103.655 119.005L79.3177 99.3588L74.0474 105.918L77.2314 108.474L79.2708 108.308L79.7091 108.675L80.5956 111.202L81.0928 111.609L82.5919 111.588L84.9328 113.472L85.0373 114.784L86.5121 115.971L89.301 116.667L89.7982 117.073L90.4048 119.217L91.9071 120.332L93.8919 120.705L95.033 121.627L95.8684 123.538L102.24 123.205L103.655 119.005Z" fill="#626868"/>
<path d="M77.9907 103.654L78.9488 102.453L102.643 121.583L102.223 123.223L77.9907 103.654Z" fill="#535858"/>
<path d="M43.8353 78.5431C43.8353 78.5431 34.7565 51.3422 48.9066 38.4898L57.3553 39.5545C57.3553 39.5545 43.2222 53.4702 46.6649 79.3875L43.8353 78.5431Z" fill="#007B56"/>
<path d="M79.8094 86.7823C79.89 84.2797 79.2283 81.8082 77.908 79.6802C76.5876 77.5522 74.6678 75.8633 72.3914 74.8269C70.1149 73.7905 67.5839 73.453 65.1183 73.8574C62.6526 74.2617 60.363 75.3895 58.5389 77.0984C56.7147 78.8072 55.438 81.0203 54.8699 83.4579C54.3018 85.8956 54.4679 88.4483 55.3473 90.7935C56.2267 93.1388 57.7797 95.1712 59.8103 96.6339C61.8408 98.0965 64.2577 98.9238 66.7554 99.0112C68.4154 99.0692 70.07 98.7989 71.6247 98.2156C73.1794 97.6323 74.6037 96.7475 75.8161 95.6117C77.0285 94.476 78.0052 93.1116 78.6904 91.5966C79.3756 90.0816 79.7558 88.4457 79.8094 86.7823V86.7823ZM59.2853 86.081C59.31 85.2982 59.566 84.5406 60.0208 83.9042C60.4757 83.2679 61.109 82.7813 61.8405 82.5062C62.572 82.2311 63.3688 82.1797 64.1301 82.3587C64.8914 82.5376 65.5829 82.9388 66.1172 83.5115C66.6514 84.0841 67.0042 84.8025 67.1311 85.5756C67.2579 86.3486 67.1531 87.1417 66.8298 87.8544C66.5065 88.5671 65.9792 89.1673 65.3149 89.579C64.6505 89.9908 63.8788 90.1956 63.0976 90.1675C62.5797 90.15 62.0703 90.0303 61.5983 89.8154C61.1263 89.6005 60.7011 89.2946 60.347 88.915C59.9929 88.5355 59.7169 88.0898 59.5348 87.6035C59.3526 87.1172 59.2678 86.5999 59.2853 86.081V86.081Z" fill="#7E8989"/>
<path d="M115.143 82.4051L77.5957 81.1179L77.265 91.2453L82.1646 91.4082L85.2668 89.4692L85.9568 89.5016L88.4931 91.6261L89.2621 91.656L91.4158 90.572L91.9911 90.5929L94.2101 91.8213L98.6912 91.9828L101.065 90.4655L101.84 90.4897L104.36 92.1758L104.814 92.191L106.992 91.1081L108.754 91.1726L110.93 92.405L116.813 87.4727L115.143 82.4051Z" fill="#7E8989"/>
<path d="M79.4161 86.2233L79.4759 84.3664L116.03 85.6192L116.813 87.4972L79.4161 86.2233Z" fill="#626868"/>
<path fill-rule="evenodd" clip-rule="evenodd" d="M64.9577 87.558C63.0921 81.9212 57.0216 78.8602 51.3988 80.7212C45.7761 82.5822 42.7303 88.6603 44.5959 94.2971C46.4616 99.934 52.5321 102.995 58.1548 101.134C58.6931 100.956 59.2072 100.739 59.6953 100.489C60.0295 101.498 60.2529 101.827 60.4439 102.404C59.9185 102.663 59.3693 102.889 58.7983 103.078C52.1045 105.293 44.8777 101.649 42.6567 94.939C40.4357 88.2285 44.0616 80.9926 50.7554 78.7771C57.4491 76.5617 64.676 80.2057 66.8969 86.9161C66.9555 87.0931 67.01 87.2705 67.0605 87.4482C66.87 87.8389 66.3675 88.8498 65.4564 89.4649C65.363 88.8108 65.181 88.2327 64.9577 87.558Z" fill="#A4B1B1"/>
<path fill-rule="evenodd" clip-rule="evenodd" d="M32.1052 90.0012C32.4242 89.5074 32.9732 89.2113 33.5607 89.2164L50.488 89.3633C51.1535 89.369 51.7559 89.7594 52.0339 90.3651L59.107 105.772C59.3525 106.307 59.3079 106.93 58.989 107.423L47.8181 124.722C47.3034 125.519 46.2406 125.747 45.4444 125.231L37.1098 119.83L44.205 108.843L36.8731 104.091L29.7779 115.078L21.444 109.678C20.6478 109.162 20.4196 108.097 20.9343 107.3L32.1052 90.0012ZM29.7779 115.078L29.7771 115.08L37.1091 119.831L37.1098 119.83L29.7779 115.078ZM43.6911 101.583C45.0409 102.458 46.8411 102.073 47.7119 100.725C48.5828 99.3761 48.1946 97.5738 46.8448 96.699C45.4951 95.8243 43.6949 96.2085 42.824 97.5571C41.9531 98.9057 42.3413 100.708 43.6911 101.583Z" fill="#007B56"/>
<path fill-rule="evenodd" clip-rule="evenodd" d="M64.9577 87.558C63.0921 81.9212 57.0216 78.8602 51.3988 80.7212C45.7761 82.5822 42.7303 88.6603 44.5959 94.2971C44.9622 95.4037 45.4904 96.4109 46.1455 97.3012C46.1455 97.3012 44.9346 98.2881 44.4522 98.4478C43.6951 97.4046 43.0835 96.2284 42.6567 94.939C40.4357 88.2285 44.0616 80.9926 50.7554 78.7771C57.4491 76.5617 64.676 80.2057 66.8969 86.9161C66.9555 87.0931 67.01 87.2705 67.0605 87.4482C66.87 87.8389 66.3675 88.8498 65.4564 89.4649C65.363 88.8108 65.181 88.2327 64.9577 87.558Z" fill="#A4B1B1"/>
<path d="M42.619 79.4308C42.619 79.4308 14.8553 71.326 3.23432 81.6173L2.59347 88.6261C2.59347 88.6261 10.0338 81.7128 40.8206 80.5343L42.619 79.4308Z" fill="#007B56"/>
<path d="M47.3503 79.6119C47.3503 79.6119 67.0022 54.0809 57.5708 36.4658L48.9276 38.5358C48.9276 38.5358 56.1747 51.2975 43.751 78.8312L47.3503 79.6119Z" fill="#16AF6F"/>
<path d="M44.4923 81.3768C44.4923 81.3768 20.3151 100.131 1.24459 89.1285L3.25555 81.6013C3.25555 81.6013 15.5307 88.7254 41.0345 79.0332L44.4923 81.3768Z" fill="#16AF6F"/>
<path d="M46.1087 86.245C43.5734 83.744 41.3654 80.9317 39.5373 77.8754L45.3408 73.7974C45.3408 73.7974 50.3487 79.6698 50.7882 82.4676L46.1087 86.245Z" fill="#16AF6F"/>
</svg>
