<svg width="144" height="144" viewBox="0 0 144 144" fill="none" xmlns="http://www.w3.org/2000/svg">
<circle cx="80" cy="80" r="80" fill="#E3FBFD"/>
<ellipse opacity="0.07" cx="79" cy="126" rx="58" ry="8" fill="#014266"/>
<path d="M109.971 125.515H39.3668C36.9669 125.515 35.02 123.568 35.02 121.168L28 16.3469C28 13.9469 29.9469 12.0001 32.3468 12.0001H102.951C105.351 12.0001 107.298 13.9469 107.298 16.3469L114.318 121.172C114.315 123.572 112.371 125.515 109.971 125.515Z" fill="#008256"/>
<path d="M115.657 125.515H45.0481C42.6482 125.515 40.7013 123.568 40.7013 121.168L33.6851 16.3468C33.6851 13.9469 35.6282 12 38.0281 12H108.633C111.033 12 112.98 13.9469 112.98 16.3468L120 121.172C120 123.572 118.056 125.515 115.657 125.515Z" fill="#0FA264"/>
<path d="M58.2126 60.9118H45.4829C45.1535 60.9118 44.8839 60.6422 44.8839 60.3128L44.1426 48.9759C44.1426 48.6464 44.6593 47.9126 44.9887 47.9126L57.4675 48.3769C57.797 48.3769 58.0666 48.6464 58.0666 48.9759L59.3208 60.0544C59.3246 60.3839 58.5421 60.9118 58.2126 60.9118Z" fill="#008256"/>
<path d="M58.8348 60.313H46.1089C45.7794 60.313 45.5099 60.0434 45.5099 59.7139L44.7686 48.3771C44.7686 48.0476 45.0381 47.778 45.3676 47.778H58.0935C58.423 47.778 58.6925 48.0476 58.6925 48.3771L59.4339 59.7139C59.4339 60.0434 59.1643 60.313 58.8348 60.313Z" fill="#86C880"/>
<path d="M81.7575 60.9792H69.0316C68.7021 60.9792 68.4326 60.7096 68.4326 60.3801L67.6875 49.0395C67.6875 48.71 68.2042 47.9762 68.5336 47.9762L81.0162 48.4405C81.3457 48.4405 81.6152 48.71 81.6152 49.0395L82.8695 60.118C82.8695 60.4513 82.087 60.9792 81.7575 60.9792Z" fill="#008256"/>
<path d="M82.3802 60.3765H69.6543C69.3248 60.3765 69.0553 60.1069 69.0553 59.7775L68.314 48.4406C68.314 48.1111 68.5835 47.8416 68.913 47.8416H81.6389C81.9684 47.8416 82.238 48.1111 82.238 48.4406L82.9793 59.7775C82.9793 60.1107 82.7134 60.3765 82.3802 60.3765Z" fill="#86C880"/>
<path d="M101.242 61.0467H90.1779C89.8032 61.0467 89.4967 60.775 89.4967 60.4428L88.6538 49.0145C88.6538 48.6824 89.2413 47.9427 89.6159 47.9427L100.399 48.4107C100.774 48.4107 101.081 48.6824 101.081 49.0145L102.507 60.1824C102.507 60.5145 101.621 61.0467 101.242 61.0467Z" fill="#008256"/>
<path d="M101.834 60.2979H90.9079C90.5379 60.2979 90.2352 60.0322 90.2352 59.7074L89.4028 48.5331C89.4028 48.2084 89.7055 47.9427 90.0755 47.9427H101.002C101.372 47.9427 101.674 48.2084 101.674 48.5331L102.507 59.7074C102.507 60.0359 102.204 60.2979 101.834 60.2979Z" fill="#86C880"/>
<path d="M107.436 79.3174H97.7055C97.376 79.3174 97.1064 79.0478 97.1064 78.7184L95.021 49.1744C95.021 48.8449 95.5377 48.1111 95.8671 48.1111L105.351 48.5791C105.68 48.5791 105.95 48.8486 105.95 49.1781L108.548 78.46C108.548 78.7895 107.766 79.3174 107.436 79.3174Z" fill="#008256"/>
<path d="M108.057 78.7145H98.3265C97.9971 78.7145 97.7275 78.445 97.7275 78.1155L95.6421 48.5715C95.6421 48.242 95.9117 47.9724 96.2411 47.9724H105.972C106.301 47.9724 106.571 48.242 106.571 48.5715L108.656 78.1155C108.656 78.4487 108.39 78.7145 108.057 78.7145Z" fill="#86C880"/>
<path d="M59.3283 78.6512H46.5987C46.2692 78.6512 45.9996 78.3817 45.9996 78.0522L45.2583 66.7153C45.2583 66.3858 45.775 65.652 46.1044 65.652L58.5832 66.1163C58.9127 66.1163 59.1823 66.3858 59.1823 66.7153L60.4365 77.7938C60.4403 78.1233 59.6578 78.6512 59.3283 78.6512Z" fill="#008256"/>
<path d="M59.951 78.052H47.2251C46.8957 78.052 46.6261 77.7825 46.6261 77.453L45.8848 66.1161C45.8848 65.7866 46.1543 65.5171 46.4838 65.5171H59.2097C59.5392 65.5171 59.8088 65.7866 59.8088 66.1161L60.5501 77.453C60.5501 77.7825 60.2805 78.052 59.951 78.052Z" fill="#86C880"/>
<path d="M82.8749 78.7185H70.149C69.8195 78.7185 69.5499 78.449 69.5499 78.1195L68.8086 66.7826C68.8086 66.4531 69.3253 65.7193 69.6547 65.7193L82.1335 66.1873C82.463 66.1873 82.7326 66.4569 82.7326 66.7863L83.9868 77.8649C83.9868 78.1869 83.2043 78.7185 82.8749 78.7185Z" fill="#008256"/>
<path d="M83.4964 78.1156H70.7705C70.4411 78.1156 70.1715 77.846 70.1715 77.5165L69.4302 66.1797C69.4302 65.8502 69.6997 65.5806 70.0292 65.5806H82.7551C83.0846 65.5806 83.3542 65.8502 83.3542 66.1797L84.0955 77.5165C84.0955 77.8498 83.8297 78.1156 83.4964 78.1156Z" fill="#86C880"/>
<path d="M102.366 78.6437H91.3014C90.9268 78.6437 90.6203 78.3797 90.6203 78.057L89.7773 66.9553C89.7773 66.6326 90.3648 65.914 90.7395 65.914L101.523 66.3686C101.898 66.3686 102.204 66.6326 102.204 66.9553L103.63 77.8041C103.63 78.1267 102.745 78.6437 102.366 78.6437Z" fill="#008256"/>
<path d="M102.957 78.2693H92.0309C91.661 78.2693 91.3583 77.9955 91.3583 77.6609L90.5259 66.148C90.5259 65.8134 90.8286 65.5396 91.1985 65.5396H102.125C102.495 65.5396 102.798 65.8134 102.798 66.148L103.63 77.6609C103.63 77.9993 103.327 78.2693 102.957 78.2693Z" fill="#86C880"/>
<path d="M60.4445 96.3903H47.7149C47.3854 96.3903 47.1158 96.1207 47.1158 95.7912L46.3745 84.4544C46.3745 84.1249 46.8912 83.3911 47.2207 83.3911L59.6995 83.8553C60.0289 83.8553 60.2985 84.1249 60.2985 84.4544L61.5527 95.5329C61.5565 95.8624 60.774 96.3903 60.4445 96.3903Z" fill="#008256"/>
<path d="M61.0648 95.7874H48.3389C48.0094 95.7874 47.7398 95.5178 47.7398 95.1884L46.9985 83.8515C46.9985 83.522 47.2681 83.2524 47.5976 83.2524H60.3235C60.653 83.2524 60.9225 83.522 60.9225 83.8515L61.6638 95.1884C61.6638 95.5216 61.3943 95.7874 61.0648 95.7874Z" fill="#86C880"/>
<path d="M68.2838 114.021H49.2193C48.8898 114.021 48.6202 113.751 48.6202 113.422L47.8789 102.085C47.8789 101.755 48.3956 101.022 48.7251 101.022L67.5425 101.486C67.8719 101.486 68.1415 101.755 68.1415 102.085L69.3958 113.163C69.3958 113.493 68.617 114.021 68.2838 114.021Z" fill="#F48556"/>
<path d="M68.9091 113.422H49.8408C49.5114 113.422 49.2418 113.152 49.2418 112.823L48.5005 101.486C48.5005 101.156 48.7701 100.887 49.0995 100.887H68.164C68.4935 100.887 68.7631 101.156 68.7631 101.486L69.5044 112.823C69.5082 113.152 69.2386 113.422 68.9091 113.422Z" fill="#F79C5C"/>
<path d="M83.9906 96.4538H71.2647C70.9352 96.4538 70.6656 96.1842 70.6656 95.8548L69.9243 84.5179C69.9243 84.1884 70.441 83.4546 70.7705 83.4546L83.2493 83.9188C83.5787 83.9188 83.8483 84.1884 83.8483 84.5179L85.1025 95.5964C85.1025 95.9259 84.32 96.4538 83.9906 96.4538Z" fill="#008256"/>
<path d="M84.6126 95.8547H71.8867C71.5573 95.8547 71.2877 95.5851 71.2877 95.2556L70.5464 83.9187C70.5464 83.5893 70.816 83.3197 71.1454 83.3197H83.8713C84.2008 83.3197 84.4704 83.5893 84.4704 83.9187L85.2117 95.2556C85.2117 95.5888 84.9459 95.8547 84.6126 95.8547Z" fill="#86C880"/>
<path d="M103.523 96.6147H92.7573C92.3928 96.6147 92.0946 96.3431 92.0946 96.011L91.2744 84.586C91.2744 84.254 91.846 83.5107 92.2105 83.5107L102.703 83.9823C103.067 83.9823 103.365 84.254 103.365 84.586L104.753 95.7507C104.753 96.0827 103.891 96.6147 103.523 96.6147Z" fill="#008256"/>
<path d="M104.461 95.8659H93.5309C93.161 95.8659 92.8583 95.6002 92.8583 95.2755L92.0259 84.1011C92.0259 83.7764 92.3286 83.5107 92.6985 83.5107H103.625C103.995 83.5107 104.297 83.7764 104.297 84.1011L105.13 95.2755C105.134 95.6002 104.831 95.8659 104.461 95.8659Z" fill="#86C880"/>
<path d="M103.093 113.721H72.4893C72.1598 113.721 71.8902 113.452 71.8902 113.122L71.1489 101.785C71.1489 101.456 71.6656 100.722 71.9951 100.722L101.977 100.812C102.307 100.812 102.576 101.081 102.576 101.411L103.83 112.864C103.83 113.193 103.426 113.721 103.093 113.721Z" fill="#008256"/>
<path d="M103.343 113.122H73.1138C72.7843 113.122 72.5148 112.853 72.5148 112.523L71.7734 101.186C71.7734 100.857 72.043 100.587 72.3725 100.587H102.602C102.931 100.587 103.201 100.857 103.201 101.186L103.942 112.523C103.942 112.853 103.672 113.122 103.343 113.122Z" fill="#86C880"/>
<path d="M104.399 35.8157H44.8763C44.0152 35.8157 43.315 35.1156 43.315 34.2545L42.6636 24.3441C42.6636 23.4829 43.3637 22.7828 44.2248 22.7828H103.747C104.608 22.7828 105.308 23.4829 105.308 24.3441L105.96 34.2545C105.96 35.1156 105.263 35.8157 104.399 35.8157Z" fill="#0D94C2"/>
<path d="M105.312 24.3441C105.312 23.4829 104.612 22.7828 103.751 22.7828H103.541C103.548 22.8427 103.56 22.9026 103.56 22.9663L104.211 32.8767C104.211 33.7378 103.511 34.4379 102.65 34.4379H43.3335C43.4234 35.2129 44.0786 35.8157 44.876 35.8157H104.398C105.259 35.8157 105.96 35.1156 105.96 34.2545L105.312 24.3441Z" fill="#E7F5FA"/>
<path d="M45.1945 26.4744C45.1945 25.6133 45.8947 24.9132 46.7558 24.9132H105.35L105.312 24.3441C105.312 23.4829 104.612 22.7828 103.751 22.7828H44.2248C43.3637 22.7828 42.6636 23.4829 42.6636 24.3441L43.315 34.2545C43.315 35.1156 44.0152 35.8157 44.8763 35.8157H45.8085L45.1945 26.4744Z" fill="#00648F"/>
<path d="M107.932 89.1341C108.31 92.6123 106.828 95.6263 104.626 95.8659C102.425 96.1055 100.332 93.4772 99.9573 89.999C99.5792 86.5208 101.062 83.5069 103.263 83.2673C105.465 83.0277 107.554 85.656 107.932 89.1341Z" fill="#86C880"/>
<path d="M73.6536 52.0536C73.6348 51.6904 73.7172 51.3534 73.8969 51.0315C74.0766 50.7132 74.3537 50.4549 74.7244 50.2639C75.095 50.073 75.5368 49.9756 76.046 49.9756C76.4765 49.9756 76.8584 50.0318 77.1879 50.1441C77.5211 50.2564 77.7982 50.41 78.0266 50.6084C78.255 50.8068 78.4272 51.0277 78.5432 51.2748C78.6631 51.5219 78.7267 51.784 78.7417 52.0648C78.7604 52.4205 78.6855 52.735 78.517 53.012C78.3486 53.2891 78.0902 53.5175 77.7383 53.6935C78.0528 53.8133 78.3149 53.9705 78.5283 54.1615C78.7417 54.3561 78.9064 54.5808 79.0225 54.8354C79.1385 55.09 79.2059 55.3745 79.2209 55.6853C79.2434 56.142 79.1573 56.5539 78.9551 56.9245C78.7529 57.2952 78.4459 57.5872 78.0303 57.7931C77.6147 58.0028 77.1168 58.1076 76.5402 58.1076C75.9412 58.1076 75.4207 58.0028 74.9827 57.7931C74.5446 57.5835 74.2077 57.2952 73.9718 56.9283C73.7359 56.5614 73.6049 56.1495 73.5824 55.6928C73.53 54.7193 73.9568 54.0529 74.8554 53.6935C74.0916 53.349 73.691 52.8024 73.6536 52.0536ZM77.727 55.6441C77.7121 55.3633 77.6409 55.1162 77.5136 54.9065C77.3863 54.6968 77.2141 54.5359 77.0007 54.4235C76.7836 54.3112 76.5477 54.2551 76.2856 54.2551C75.9149 54.2551 75.6154 54.3786 75.3758 54.6257C75.1399 54.8728 75.0314 55.2135 75.0538 55.6553C75.0688 55.9361 75.1399 56.187 75.271 56.4004C75.3983 56.6138 75.5668 56.7823 75.7764 56.8983C75.9861 57.0144 76.2145 57.0743 76.4616 57.0743C76.7124 57.0743 76.9408 57.0144 77.1355 56.8946C77.3302 56.7748 77.4837 56.6063 77.5848 56.3891C77.6971 56.1757 77.742 55.9249 77.727 55.6441ZM76.1284 51.0127C75.7877 51.0127 75.5218 51.1176 75.3234 51.331C75.125 51.5444 75.0388 51.814 75.0538 52.1472C75.0688 52.4542 75.1886 52.7088 75.4132 52.9147C75.6379 53.1206 75.9187 53.2217 76.2557 53.2217C76.4241 53.2217 76.5776 53.1955 76.7162 53.1393C76.851 53.0869 76.967 53.012 77.0606 52.9147C77.1542 52.8211 77.2254 52.705 77.274 52.574C77.3227 52.443 77.3414 52.2969 77.3339 52.1359C77.3227 51.9225 77.2628 51.7316 77.1617 51.5594C77.0569 51.3909 76.9146 51.2561 76.7386 51.1588C76.5552 51.0614 76.353 51.0127 76.1284 51.0127Z" fill="white"/>
<path d="M95.6836 27.9281C95.6687 27.6271 95.7342 27.3479 95.8772 27.081C96.0202 26.8173 96.2407 26.6032 96.5356 26.445C96.8305 26.2867 97.1821 26.2061 97.5873 26.2061C97.9299 26.2061 98.2337 26.2526 98.4959 26.3457C98.761 26.4388 98.9815 26.566 99.1632 26.7304C99.345 26.8949 99.482 27.0779 99.5744 27.2827C99.6697 27.4875 99.7203 27.7047 99.7323 27.9374C99.7471 28.2322 99.6876 28.4928 99.5535 28.7224C99.4194 28.952 99.2139 29.1413 98.9338 29.2871C99.1841 29.3864 99.3926 29.5167 99.5624 29.675C99.7323 29.8363 99.8633 30.0225 99.9557 30.2335C100.048 30.4444 100.102 30.6803 100.114 30.9378C100.131 31.3163 100.063 31.6576 99.9021 31.9648C99.7412 32.272 99.4969 32.514 99.1662 32.6846C98.8355 32.8584 98.4393 32.9453 97.9805 32.9453C97.5038 32.9453 97.0897 32.8584 96.7412 32.6846C96.3926 32.5109 96.1245 32.272 95.9368 31.9679C95.7491 31.6638 95.6448 31.3225 95.627 30.944C95.5852 30.1373 95.9249 29.585 96.6399 29.2871C96.0321 29.0017 95.7134 28.5487 95.6836 27.9281ZM98.9249 30.9037C98.913 30.6709 98.8564 30.4662 98.7551 30.2924C98.6538 30.1187 98.5168 29.9852 98.3469 29.8921C98.1741 29.7991 97.9865 29.7525 97.7779 29.7525C97.483 29.7525 97.2446 29.8549 97.054 30.0597C96.8663 30.2645 96.7799 30.5468 96.7978 30.913C96.8097 31.1457 96.8663 31.3536 96.9706 31.5304C97.0719 31.7073 97.2059 31.8469 97.3728 31.9431C97.5396 32.0393 97.7213 32.0889 97.9179 32.0889C98.1175 32.0889 98.2993 32.0393 98.4542 31.94C98.6091 31.8407 98.7313 31.7011 98.8117 31.5211C98.9011 31.3442 98.9368 31.1364 98.9249 30.9037ZM97.6528 27.0655C97.3817 27.0655 97.1702 27.1524 97.0123 27.3293C96.8544 27.5061 96.7859 27.7295 96.7978 28.0057C96.8097 28.2601 96.905 28.4711 97.0838 28.6417C97.2625 28.8124 97.486 28.8962 97.7541 28.8962C97.8881 28.8962 98.0103 28.8744 98.1205 28.8279C98.2278 28.7845 98.3201 28.7224 98.3946 28.6417C98.4691 28.5642 98.5257 28.468 98.5644 28.3594C98.6031 28.2508 98.618 28.1298 98.6121 27.9964C98.6031 27.8195 98.5555 27.6613 98.475 27.5185C98.3916 27.3789 98.2784 27.2672 98.1384 27.1865C97.9924 27.1059 97.8315 27.0655 97.6528 27.0655Z" fill="white"/>
<path d="M93.7555 84.2221C93.5046 84.9934 93.3062 85.9181 93.1489 86.9665C93.441 85.5737 93.6619 84.5778 93.7555 84.2221Z" fill="#AD263D"/>
<path d="M54.9405 92.7097L54.6822 87.7751C53.8023 88.479 53.2033 88.8309 52.885 88.8309C52.7315 88.8309 52.5967 88.771 52.4695 88.6474C52.3459 88.5276 52.2785 88.3854 52.271 88.2281C52.2598 88.0446 52.3122 87.9099 52.4245 87.82C52.5368 87.7339 52.7353 87.6216 53.0198 87.483C53.4466 87.2771 53.7836 87.06 54.0345 86.8316C54.2853 86.6032 54.5025 86.3486 54.6897 86.0678C54.8769 85.787 55.0004 85.611 55.0603 85.5474C55.1165 85.4837 55.2325 85.45 55.401 85.45C55.592 85.45 55.7492 85.5249 55.8728 85.6709C55.9963 85.8207 56.0637 86.0229 56.0787 86.285L56.4044 92.4963C56.4419 93.2226 56.2135 93.5858 55.7193 93.5858C55.4984 93.5858 55.3186 93.5109 55.1764 93.3649C55.0341 93.2151 54.9555 92.998 54.9405 92.7097Z" fill="white"/>
<path d="M78.8489 32.2407L78.6386 28.1531C77.9222 28.7361 77.4345 29.0277 77.1754 29.0277C77.0505 29.0277 76.9407 28.978 76.8371 28.8757C76.7365 28.7765 76.6816 28.6586 76.6755 28.5283C76.6664 28.3764 76.7091 28.2647 76.8005 28.1903C76.8919 28.119 77.0535 28.0259 77.2852 27.9112C77.6327 27.7406 77.907 27.5607 78.1112 27.3715C78.3154 27.1824 78.4922 26.9715 78.6446 26.7389C78.7971 26.5063 78.8976 26.3605 78.9464 26.3078C78.9921 26.2551 79.0866 26.2271 79.2238 26.2271C79.3793 26.2271 79.5073 26.2892 79.6079 26.4101C79.7085 26.5342 79.7633 26.7017 79.7755 26.9187L80.0407 32.0639C80.0712 32.6655 79.8853 32.9664 79.4829 32.9664C79.3031 32.9664 79.1567 32.9043 79.0409 32.7834C78.9251 32.6593 78.8611 32.4795 78.8489 32.2407Z" fill="white"/>
<path d="M77.8012 92.2419H80.6317C80.9125 92.2419 81.1334 92.298 81.2869 92.4141C81.4404 92.5302 81.5228 92.6874 81.534 92.8858C81.5415 93.0618 81.4928 93.2116 81.3805 93.3351C81.2682 93.4587 81.096 93.5186 80.8564 93.5186H76.8652C76.5919 93.5186 76.3785 93.4437 76.2175 93.2939C76.0565 93.1442 75.9742 92.9682 75.9629 92.766C75.9554 92.635 75.9966 92.4628 76.0827 92.2494C76.1689 92.0359 76.2662 91.8637 76.3748 91.7439C76.8278 91.246 77.2396 90.8191 77.6103 90.4635C77.9772 90.1078 78.243 89.8719 78.404 89.7596C78.6886 89.5499 78.9245 89.3403 79.1117 89.1268C79.2989 88.9172 79.4374 88.7 79.5272 88.4754C79.6171 88.2545 79.6583 88.0336 79.647 87.8202C79.6358 87.5881 79.5684 87.3821 79.4486 87.1987C79.3288 87.0152 79.1716 86.873 78.9769 86.7719C78.7822 86.6708 78.5725 86.6221 78.3479 86.6221C77.8761 86.6221 77.513 86.828 77.2621 87.2474C77.2284 87.2998 77.176 87.4495 77.1049 87.6929C77.0337 87.9363 76.9476 88.1197 76.8465 88.2508C76.7454 88.3818 76.5919 88.4454 76.386 88.4454C76.2063 88.4454 76.0528 88.3855 75.9255 88.2657C75.7982 88.1459 75.7308 87.9849 75.7196 87.779C75.7083 87.5282 75.7495 87.2698 75.8469 86.9965C75.9442 86.7269 76.0977 86.4798 76.3111 86.2589C76.5208 86.038 76.7941 85.8621 77.1273 85.7235C77.4605 85.5888 77.8574 85.5214 78.3179 85.5214C78.872 85.5214 79.3475 85.6075 79.7481 85.7797C80.0065 85.8958 80.2386 86.053 80.4408 86.2552C80.643 86.4574 80.8039 86.6932 80.9238 86.9591C81.0436 87.2249 81.111 87.5019 81.1259 87.7865C81.1484 88.2358 81.0585 88.6439 80.8564 89.0108C80.6542 89.3777 80.4408 89.666 80.2199 89.8719C79.999 90.0778 79.6283 90.4073 79.1079 90.8491C78.5875 91.2946 78.2318 91.6391 78.0409 91.8862C77.966 91.9835 77.8836 92.1033 77.8012 92.2419Z" fill="white"/>
<path d="M91.3865 31.5759H93.5727C93.7896 31.5759 93.9602 31.6206 94.0787 31.7129C94.1973 31.8053 94.2609 31.9305 94.2696 32.0884C94.2754 32.2284 94.2378 32.3476 94.151 32.446C94.0643 32.5443 93.9313 32.592 93.7462 32.592H90.6636C90.4525 32.592 90.2877 32.5324 90.1633 32.4132C90.039 32.294 89.9754 32.1539 89.9667 31.993C89.9609 31.8887 89.9927 31.7517 90.0592 31.5818C90.1257 31.412 90.2009 31.2749 90.2848 31.1796C90.6347 30.7832 90.9528 30.4435 91.2391 30.1605C91.5224 29.8774 91.7278 29.6897 91.8521 29.6003C92.0719 29.4334 92.2541 29.2665 92.3986 29.0967C92.5432 28.9298 92.6502 28.757 92.7196 28.5782C92.789 28.4024 92.8208 28.2266 92.8122 28.0567C92.8035 27.872 92.7514 27.7081 92.6589 27.5621C92.5664 27.4161 92.4449 27.3028 92.2945 27.2224C92.1442 27.1419 91.9822 27.1032 91.8087 27.1032C91.4444 27.1032 91.1639 27.2671 90.9701 27.6008C90.9441 27.6425 90.9036 27.7617 90.8487 27.9554C90.7937 28.1491 90.7272 28.2951 90.6491 28.3994C90.5711 28.5037 90.4525 28.5544 90.2935 28.5544C90.1547 28.5544 90.0361 28.5067 89.9378 28.4113C89.8395 28.316 89.7874 28.1878 89.7787 28.024C89.7701 27.8243 89.8019 27.6187 89.8771 27.4012C89.9522 27.1866 90.0708 26.99 90.2356 26.8142C90.3976 26.6384 90.6087 26.4983 90.866 26.3881C91.1234 26.2808 91.4299 26.2271 91.7856 26.2271C92.2136 26.2271 92.5808 26.2957 92.8902 26.4327C93.0898 26.5251 93.269 26.6503 93.4252 26.8112C93.5814 26.9721 93.7057 27.1598 93.7982 27.3714C93.8908 27.5829 93.9428 27.8035 93.9544 28.0299C93.9717 28.3875 93.9023 28.7123 93.7462 29.0043C93.59 29.2963 93.4252 29.5258 93.2546 29.6897C93.084 29.8535 92.7977 30.1158 92.3957 30.4674C91.9938 30.822 91.7191 31.0961 91.5716 31.2928C91.5138 31.3703 91.4502 31.4656 91.3865 31.5759Z" fill="white"/>
<path d="M83.5969 131.529C84.5965 130.14 87.1275 129.088 87.1275 129.088C87.1275 129.088 84.2895 108.541 86.4274 89.9858C87.5506 80.2439 92.1782 68.1058 93.0168 66.3087C95.9671 66.7917 108.262 64.1709 109.805 64.0473C110.782 65.6872 112.692 68.0721 113.403 72.7933C114.519 80.2364 110.31 91.753 110.033 97.7247C109.955 99.3758 107.697 128.572 107.697 128.572C107.637 128.961 107.645 129.354 107.727 129.74C107.899 130.545 108.158 131.952 107.884 132.106C106.132 133.091 98.4232 132.926 99.4228 131.533C100.422 130.144 102.953 129.092 102.953 129.092C102.953 129.092 97.8953 94.6733 101.085 84.8827C98.7152 88.2149 96.6186 95.5457 96.3939 98.3911C95.851 105.276 91.8637 128.572 91.8637 128.572C91.8038 128.961 91.8112 129.354 91.8936 129.74C92.0658 130.545 92.3242 131.952 92.0509 132.106C90.3061 133.087 82.5972 132.918 83.5969 131.529Z" fill="#E29278"/>
<path d="M83.5969 131.529C83.975 131.002 84.5741 130.526 85.1694 130.133C85.6785 130.534 90.1339 129.332 90.9127 129.242C91.362 129.189 91.6839 129.38 91.8786 129.553C91.8861 129.613 91.8861 129.672 91.9011 129.732C92.0733 130.537 92.3317 131.945 92.0583 132.099C90.3061 133.087 82.5972 132.919 83.5969 131.529Z" fill="#005073"/>
<path d="M99.424 131.529C99.8022 131.002 100.401 130.526 100.997 130.133C101.506 130.534 105.961 129.332 106.74 129.242C107.189 129.189 107.511 129.38 107.706 129.553C107.717 129.613 107.713 129.672 107.728 129.732C107.9 130.537 108.159 131.945 107.885 132.099C106.133 133.087 98.4244 132.919 99.424 131.529Z" fill="#005073"/>
<path d="M101.172 43.2643C101.172 43.2643 100.655 40.037 100.311 38.7228C100.011 37.5734 99.6105 36.9931 99.0376 36.7235C97.8134 36.1469 97.0309 43.781 97.5925 44.0955C98.1541 44.41 101.172 43.2643 101.172 43.2643Z" fill="#F7B48F"/>
<path d="M96.3643 32.6836C96.3643 32.6836 95.3721 35.252 95.0539 36.6148C94.7356 37.9777 94.7859 40.5461 96.6414 41.1077C99.7339 42.0437 100.052 39.7486 99.8874 37.9103C99.7227 36.072 96.3643 32.6836 96.3643 32.6836Z" fill="#F7B48F"/>
<path d="M86.4282 89.9858C87.5514 80.2439 92.179 68.1058 93.0176 66.3087C95.9679 66.7917 108.263 64.1709 109.806 64.0473C110.783 65.6872 112.692 68.0721 113.404 72.7933C114.445 79.7385 111.326 90.7271 110.615 96.9534C107.601 97.8483 103.602 98.0804 100.045 96.9347C99.9703 91.9065 100.232 87.5073 101.086 84.8827C99.0867 87.6945 92.7743 124.172 92.1228 127.583C90.0599 127.909 87.4578 127.853 86.7502 127.583C84.3128 99.1961 86.2672 91.3749 86.4282 89.9858Z" fill="#00648F"/>
<path d="M100.768 65.5973C97.5145 66.1215 94.3358 66.5221 93.0179 66.3087C92.8008 66.7729 92.329 67.9373 91.73 69.5697C95.1782 70.2511 103.116 71.116 108.904 66.3012L100.768 65.5973Z" fill="#005073"/>
<path d="M92.5504 67.491L93.6774 63.1629C93.9544 60.9764 93.6137 58.7488 92.644 56.7719C91.1389 53.7018 89.4055 48.0895 92.3483 45.4388C96.2607 41.9119 105.179 40.7326 106.95 47.5317C107.935 51.3094 106.909 55.1096 109.915 64.1626C110.589 66.1881 106.119 68.3259 102.217 68.5356C95.2836 68.9025 92.5504 67.491 92.5504 67.491Z" fill="#F9FAFB"/>
<path d="M101.374 31.5416C101.374 31.5416 101.422 28.8384 104.436 29.269C107.45 29.6996 107.308 35.705 104.627 35.851C101.947 35.9933 101.134 34.4844 101.374 31.5416Z" fill="#824C3A"/>
<path d="M97.6299 30.3473C98.8954 30.1676 102.546 28.8759 103.957 31.6427C104.998 33.687 105.537 40.6733 100.723 40.6733C99.341 41.2162 97.5139 38.5729 97.1545 37.7979C97.0197 37.5021 96.3907 35.8286 96.196 34.1625C96.196 34.1625 94.7957 30.7442 97.6299 30.3473Z" fill="#824C3A"/>
<path d="M96.4586 37.2581C96.4586 37.2581 96.2443 36.1753 96.8603 35.9897C97.844 35.8535 98.1066 37.3549 97.4465 38.2249C96.7899 39.0958 96.205 38.3125 96.4586 37.2581Z" fill="#F7B48F"/>
<path d="M94.0993 45.0575C90.1269 44.2676 87.8692 59.4271 87.8692 59.4271C87.8692 59.4271 74.6139 54.3074 74.08 55.6494C73.6532 56.2596 74.3047 57.1357 75.3829 58.4873C78.4456 62.3249 84.5109 67.0873 89.423 66.5856C95.054 66.009 99.5281 46.1358 94.0993 45.0575Z" fill="#F7B48F"/>
<path d="M95.9933 55.6682C95.7874 56.8176 95.428 57.7686 95.0536 59.079C93.6346 58.7495 90.0703 56.9262 89.812 54.5861C89.5799 52.4558 93.7507 54.7434 95.9933 55.6682Z" fill="#E29278"/>
<path d="M88.9058 54.2042C89.9354 49.9024 91.7063 44.5784 94.0987 45.0576C96.9254 45.6192 96.9666 51.8268 95.5664 57.7274C93.934 57.7648 90.5157 57.4241 88.9058 54.2042Z" fill="#F9FAFB"/>
<path d="M75.8731 55.7543C76.1239 55.2825 75.9068 55.1852 75.9817 54.1106C76.0528 53.0361 76.6706 51.3962 75.6821 51.9766C74.8697 52.4558 75.1992 53.6876 74.6712 53.6539C74.1433 53.6202 72.1515 50.4041 71.8745 50.9919C71.5974 51.5797 72.0692 51.6808 71.8408 52.4595C71.6124 53.2383 70.9871 53.6838 71.9568 54.9755C72.9303 56.2635 74.5177 58.3077 75.8731 55.7543Z" fill="#F7B48F"/>
<path d="M94.098 45.0575C93.7498 44.9864 93.4166 45.0538 93.0946 45.2073C94.098 47.098 93.6562 50.9806 93.4428 52.3621C93.2481 53.6313 92.2784 55.7167 91.6719 56.9448C93.1058 57.6449 95.0527 57.7909 95.9887 57.7685C98.4223 50.6548 97.4863 45.7498 94.098 45.0575Z" fill="#E8E7E7"/>
<path d="M102.406 127.385C103.833 127.894 106.528 127.763 108.104 127.411C108.816 121.188 114.443 79.7347 113.402 72.7896C112.695 68.0684 110.785 65.6834 109.804 64.0435C109.4 64.0772 108.262 64.2794 106.749 64.5527C106.978 69.6034 110.579 77.039 108.689 78.7014C106.304 80.798 101.463 78.1173 97.5763 78.8362C93.69 79.5513 97.4902 81.442 96.7901 84.1714C96.1873 86.5264 91.0093 125.517 90.7847 127.733C91.2826 127.703 91.9865 127.602 92.1213 127.572C92.7727 124.161 98.7295 90.7159 100.205 87.8779C100.059 89.3606 99.3547 107.568 102.406 127.385Z" fill="#005073"/>
<path d="M106.897 47.581C105.931 43.8669 102.831 42.5453 99.5771 42.6726C100.427 44.5408 102.265 49.0599 102.348 53.2644C102.415 56.649 102.131 63.7027 101.906 68.5924C101.992 68.5887 102.071 68.5887 102.161 68.5812C106.062 68.3715 110.532 66.2337 109.858 64.2082C106.856 55.1589 107.881 51.3587 106.897 47.581Z" fill="#E8E7E7"/>
<path d="M100.296 43.3542C101.045 43.3542 101.17 42.7926 101.045 42.6054C100.483 42.6054 98.424 42.231 97.3008 42.9798C97.9248 43.167 99.5472 43.3542 100.296 43.3542Z" fill="#F7B48F"/>
<path d="M53.9326 75.4201L53.8802 74.4129H51.1583C50.8138 74.4129 50.5518 74.3343 50.3721 74.1808C50.1923 74.0273 50.095 73.8139 50.08 73.5481C50.0763 73.4807 50.0838 73.4095 50.1062 73.3384C50.1287 73.2673 50.1624 73.1924 50.2073 73.1175C50.2522 73.0389 50.3009 72.964 50.3533 72.8928C50.402 72.8217 50.4657 72.7319 50.5405 72.627L53.2138 68.7819C53.3897 68.5273 53.532 68.3439 53.6481 68.2316C53.7641 68.1192 53.9064 68.0593 54.0749 68.0593C54.6253 68.0593 54.9135 68.3738 54.9472 69.0028L55.1681 73.1999H55.4003C55.6773 73.1999 55.9057 73.2373 56.0779 73.3122C56.2502 73.3871 56.3438 73.5555 56.355 73.8101C56.3662 74.0198 56.3063 74.1733 56.1715 74.2669C56.0405 74.3642 55.8346 74.4092 55.5613 74.4092H55.2318L55.2842 75.4163C55.2992 75.6934 55.2468 75.903 55.1344 76.0378C55.0184 76.1726 54.8574 76.24 54.6515 76.24C54.4493 76.24 54.2808 76.1689 54.1498 76.0303C54.0225 75.8956 53.9476 75.6896 53.9326 75.4201ZM51.4878 73.1961H53.8203L53.6556 70.0474L51.4878 73.1961Z" fill="white"/>
<path d="M86.6057 32.2968L86.5701 31.4668L84.2974 31.4444C84.0098 31.4416 83.7916 31.3747 83.6428 31.2467C83.494 31.1188 83.4144 30.9422 83.4041 30.7231C83.4015 30.6676 83.4083 30.609 83.4276 30.5506C83.447 30.4922 83.4757 30.4308 83.5138 30.3695C83.552 30.3051 83.5932 30.2438 83.6376 30.1856C83.6788 30.1274 83.7327 30.0539 83.796 29.9682L86.0593 26.8227C86.2083 26.6144 86.3286 26.4645 86.4264 26.3729C86.5242 26.2813 86.6435 26.2331 86.7842 26.2345C87.2437 26.239 87.4819 26.5005 87.5049 27.0189L87.6554 30.4781L87.8492 30.48C88.0805 30.4822 88.2709 30.515 88.4141 30.5781C88.5573 30.6412 88.6341 30.7807 88.6414 30.9905C88.6491 31.1633 88.5978 31.2893 88.4845 31.3653C88.3743 31.4444 88.202 31.4797 87.9738 31.4775L87.6987 31.4748L87.7343 32.3048C87.7446 32.5332 87.6991 32.7055 87.6042 32.8156C87.5062 32.9257 87.3713 32.9799 87.1993 32.9782C87.0305 32.9765 86.8904 32.9165 86.7821 32.8013C86.6769 32.6893 86.6161 32.519 86.6057 32.2968ZM84.5824 30.4448L86.53 30.4639L86.4179 27.8688L84.5824 30.4448Z" fill="white"/>
<path d="M78.2925 69.1786H75.7166L75.4995 70.9346C75.9974 70.6613 76.4654 70.5227 76.8997 70.5227C77.2479 70.5227 77.5736 70.5864 77.8844 70.7174C78.1951 70.8485 78.4685 71.0282 78.7081 71.2566C78.9477 71.485 79.1424 71.7583 79.2884 72.0728C79.4344 72.3873 79.5168 72.7242 79.5355 73.0874C79.5617 73.6116 79.4719 74.087 79.2584 74.5176C79.045 74.9482 78.723 75.2889 78.2962 75.5435C77.8657 75.7981 77.364 75.9216 76.7836 75.9216C76.1359 75.9216 75.6043 75.8018 75.1887 75.5622C74.7731 75.3226 74.4736 75.0493 74.2901 74.7422C74.1067 74.4315 74.0093 74.1619 73.9944 73.9298C73.9869 73.7875 74.0393 73.6565 74.1479 73.5292C74.2564 73.4019 74.4025 73.3382 74.5784 73.3382C74.8817 73.3382 75.1176 73.5142 75.2823 73.8624C75.4433 74.1844 75.653 74.4352 75.9075 74.615C76.1621 74.7947 76.4429 74.8845 76.7462 74.8845C77.0233 74.8845 77.2666 74.8134 77.4688 74.6674C77.671 74.5214 77.8207 74.3229 77.9218 74.0721C78.0229 73.8175 78.0641 73.5329 78.0491 73.2109C78.0304 72.8628 77.9555 72.567 77.817 72.3236C77.6822 72.0765 77.5062 71.8931 77.2966 71.7732C77.0832 71.6534 76.851 71.5935 76.6002 71.5935C76.2894 71.5935 76.0685 71.631 75.9375 71.7059C75.8065 71.7807 75.623 71.9155 75.3796 72.1065C75.14 72.2974 74.9378 72.391 74.7731 72.391C74.5971 72.391 74.4361 72.3274 74.2901 72.2001C74.1441 72.0728 74.0692 71.9267 74.0617 71.762C74.0617 71.7433 74.073 71.6197 74.1029 71.3951L74.4212 68.7968C74.4549 68.486 74.5372 68.2614 74.6683 68.1191C74.7993 67.9768 75.0202 67.9094 75.331 67.9094H78.1951C78.7605 67.9094 79.0525 68.1228 79.075 68.5534C79.0862 68.7406 79.0226 68.8941 78.8915 69.0102C78.7567 69.1225 78.5583 69.1786 78.2925 69.1786Z" fill="white"/>
<path d="M50.227 50.4063H53.84C54.1882 50.4063 54.4428 50.4625 54.6 50.5673C54.761 50.6759 54.8471 50.8556 54.8621 51.1027C54.8696 51.2525 54.7872 51.4547 54.6187 51.7055C54.4503 51.9564 54.2556 52.2297 54.0384 52.5329C53.8213 52.8362 53.6004 53.2106 53.3757 53.6599C53.1511 54.1092 52.9527 54.6558 52.7804 55.3035C52.7093 55.5881 52.6606 55.8277 52.6344 56.0149C52.6082 56.2021 52.582 56.4454 52.5521 56.7487C52.5258 57.0482 52.4996 57.2766 52.4734 57.4376C52.4173 57.8045 52.3237 58.0629 52.1926 58.2051C52.0616 58.3474 51.8781 58.4185 51.6497 58.4185C51.4288 58.4185 51.2491 58.3399 51.1069 58.1864C50.9646 58.0329 50.886 57.8045 50.871 57.505C50.8598 57.2729 50.8897 56.9584 50.9683 56.5615C51.0432 56.1646 51.178 55.6891 51.3689 55.1313C51.5599 54.5772 51.807 54.0081 52.1065 53.424C52.406 52.8399 52.7692 52.2596 53.196 51.6793H50.2944C49.9911 51.6793 49.7628 51.6231 49.6055 51.5146C49.4483 51.406 49.3659 51.23 49.3547 50.9979C49.3434 50.747 49.4146 50.5861 49.5681 50.5149C49.7216 50.4438 49.9425 50.4063 50.227 50.4063Z" fill="white"/>
</svg>
